<svg width="120" height="80" viewBox="0 0 213 80" fill="none" xmlns="http://www.w3.org/2000/svg">
    <g clip-path="url(#clip0_1_6)">
        <path d="M36.5382 32.9062L52.8771 46.8164C52.6882 46.9218 52.4994 47.0508 52.3105 47.1679C50.1855 48.6211 47.5764 49.5468 45.3216 49.5468C43.0077 49.5468 40.5049 48.6445 38.3327 47.1679C35.7236 45.3515 32.241 45.3515 29.632 47.1679C27.6132 48.5508 25.1459 49.5468 22.6431 49.5468C21.4507 49.5468 20.1521 49.289 18.8771 48.8203C19.2549 34.6406 30.9542 23.25 45.3334 23.25H52.8889C54.9785 23.25 56.6667 24.9258 56.6667 27C56.6667 29.0742 54.9785 30.75 52.8889 30.75H45.3334C42.1577 30.75 39.1591 31.5234 36.5382 32.9062ZM18.8889 30.75C18.8889 32.7391 18.0929 34.6468 16.6759 36.0533C15.259 37.4598 13.3372 38.25 11.3333 38.25C9.32948 38.25 7.4077 37.4598 5.99075 36.0533C4.57381 34.6468 3.77778 32.7391 3.77778 30.75C3.77778 28.7609 4.57381 26.8532 5.99075 25.4467C7.4077 24.0402 9.32948 23.25 11.3333 23.25C13.3372 23.25 15.259 24.0402 16.6759 25.4467C18.0929 26.8532 18.8889 28.7609 18.8889 30.75ZM36.1841 50.1914C38.8403 52.0078 42.0868 53.25 45.3334 53.25C48.5091 53.25 51.8737 51.9843 54.4709 50.1914C55.8757 49.1953 57.7882 49.2773 59.0987 50.3906C60.7987 51.7851 62.9355 52.8515 65.0723 53.3437C67.1028 53.8125 68.366 55.8281 67.8938 57.8437C67.4216 59.8593 65.391 61.1132 63.3605 60.6445C60.4681 59.9765 58.0598 58.7109 56.4896 57.7148C53.066 59.5429 49.2292 60.75 45.3334 60.75C41.5674 60.75 38.1792 59.5898 35.8417 58.5351C35.157 58.2187 34.5313 57.914 34 57.6328C33.4688 57.914 32.8549 58.2304 32.1584 58.5351C29.8209 59.5898 26.4327 60.75 22.6667 60.75C18.7708 60.75 14.934 59.5429 11.5104 57.7265C9.92848 58.7109 7.53195 59.9882 4.63959 60.6562C2.60903 61.125 0.578473 59.871 0.10625 57.8554C-0.365973 55.8398 0.897223 53.8242 2.92778 53.3554C5.06459 52.8632 7.2014 51.7968 8.9014 50.4023C10.2118 49.3008 12.1243 49.2187 13.5292 50.2031C16.1382 51.9843 19.491 53.25 22.6667 53.25C25.9132 53.25 29.1597 52.0078 31.816 50.1914C33.1264 49.2656 34.8736 49.2656 36.1841 50.1914Z"
              fill="#000000"/>
        <path d="M107.68 64.384C104.224 64.384 101.131 63.6373 98.4 62.144C95.6693 60.608 93.5147 58.5173 91.936 55.872C90.4 53.184 89.632 50.1547 89.632 46.784V19.136H96.544V46.208C96.544 48.384 97.056 50.3467 98.08 52.096C99.104 53.8027 100.448 55.168 102.112 56.192C103.819 57.216 105.675 57.728 107.68 57.728C109.813 57.728 111.733 57.216 113.44 56.192C115.189 55.168 116.576 53.8027 117.6 52.096C118.624 50.3467 119.136 48.384 119.136 46.208V19.136H125.728V46.784C125.728 50.1547 124.939 53.184 123.36 55.872C121.824 58.5173 119.691 60.608 116.96 62.144C114.229 63.6373 111.136 64.384 107.68 64.384ZM146.159 64V25.856H133.615V19.2H165.999V25.856H153.071V64H146.159ZM174.522 64V19.2H193.594C196.154 19.2 198.501 19.84 200.634 21.12C202.81 22.3573 204.538 24.064 205.818 26.24C207.098 28.3733 207.738 30.784 207.738 33.472C207.738 35.904 207.098 38.1653 205.818 40.256C204.538 42.3467 202.831 44.032 200.698 45.312C198.565 46.5493 196.197 47.168 193.594 47.168H181.434V64H174.522ZM201.146 64L189.754 43.776L196.858 42.176L209.53 64.064L201.146 64ZM181.434 40.512H194.234C195.471 40.512 196.581 40.2133 197.562 39.616C198.543 38.976 199.311 38.1227 199.866 37.056C200.421 35.9467 200.698 34.7307 200.698 33.408C200.698 31.9147 200.335 30.6133 199.61 29.504C198.927 28.352 197.946 27.456 196.666 26.816C195.429 26.176 194.021 25.856 192.442 25.856H181.434V40.512Z"
              fill="#000000"/>
    </g>
    <defs>
        <clipPath id="clip0_1_6">
            <rect width="213" height="80" fill="white"/>
        </clipPath>
    </defs>
</svg>
