<svg width="256" height="256" viewBox="0 0 256 256" fill="none" xmlns="http://www.w3.org/2000/svg">
<g clip-path="url(#clip0_102_9)">
<rect width="256" height="256" rx="70" fill="#171717"/>
<path d="M136.136 109.691L172.418 140.757C171.999 140.992 171.579 141.28 171.16 141.542C166.441 144.787 160.648 146.855 155.641 146.855C150.502 146.855 144.945 144.839 140.121 141.542C134.327 137.485 126.594 137.485 120.8 141.542C116.318 144.63 110.839 146.855 105.281 146.855C102.633 146.855 99.7495 146.279 96.9182 145.232C97.7571 113.564 123.737 88.125 155.667 88.125H172.445C177.085 88.125 180.833 91.8676 180.833 96.5C180.833 101.132 177.085 104.875 172.445 104.875H155.667C148.615 104.875 141.956 106.602 136.136 109.691ZM96.9445 104.875C96.9445 109.317 95.1768 113.578 92.0304 116.719C88.8839 119.86 84.6164 121.625 80.1667 121.625C75.7169 121.625 71.4494 119.86 68.303 116.719C65.1565 113.578 63.3889 109.317 63.3889 104.875C63.3889 100.433 65.1565 96.1722 68.303 93.031C71.4494 89.8897 75.7169 88.125 80.1667 88.125C84.6164 88.125 88.8839 89.8897 92.0304 93.031C95.1768 96.1722 96.9445 100.433 96.9445 104.875ZM135.35 148.294C141.248 152.351 148.458 155.125 155.667 155.125C162.719 155.125 170.19 152.298 175.957 148.294C179.077 146.069 183.324 146.253 186.234 148.739C190.009 151.853 194.754 154.235 199.499 155.334C204.008 156.381 206.813 160.883 205.764 165.384C204.716 169.886 200.207 172.686 195.697 171.639C189.275 170.148 183.927 167.321 180.44 165.096C172.838 169.179 164.318 171.875 155.667 171.875C147.304 171.875 139.78 169.284 134.59 166.928C133.069 166.222 131.68 165.541 130.5 164.913C129.32 165.541 127.957 166.248 126.41 166.928C121.22 169.284 113.696 171.875 105.333 171.875C96.6823 171.875 88.1623 169.179 80.5599 165.123C77.0471 167.321 71.7253 170.174 65.3026 171.666C60.7936 172.712 56.2845 169.912 55.2359 165.41C54.1873 160.909 56.9923 156.407 61.5014 155.36C66.2464 154.261 70.9913 151.88 74.7663 148.765C77.6762 146.305 81.9231 146.122 85.0427 148.32C90.8363 152.298 98.2814 155.125 105.333 155.125C112.543 155.125 119.752 152.351 125.65 148.294C128.56 146.226 132.44 146.226 135.35 148.294Z" fill="#5FBAD7"/>
<path d="M131.136 104.691L167.418 135.757C166.999 135.992 166.579 136.28 166.16 136.542C161.441 139.787 155.648 141.855 150.641 141.855C145.502 141.855 139.945 139.839 135.121 136.542C129.327 132.485 121.594 132.485 115.8 136.542C111.318 139.63 105.839 141.855 100.281 141.855C97.6332 141.855 94.7495 141.279 91.9182 140.232C92.7571 108.564 118.737 83.125 150.667 83.125H167.445C172.085 83.125 175.833 86.8676 175.833 91.5C175.833 96.1324 172.085 99.875 167.445 99.875H150.667C143.615 99.875 136.956 101.602 131.136 104.691ZM91.9445 99.875C91.9445 104.317 90.1768 108.578 87.0304 111.719C83.8839 114.86 79.6164 116.625 75.1667 116.625C70.7169 116.625 66.4494 114.86 63.303 111.719C60.1565 108.578 58.3889 104.317 58.3889 99.875C58.3889 95.4326 60.1565 91.1722 63.303 88.031C66.4494 84.8897 70.7169 83.125 75.1667 83.125C79.6164 83.125 83.8839 84.8897 87.0304 88.031C90.1768 91.1722 91.9445 95.4326 91.9445 99.875ZM130.35 143.294C136.248 147.351 143.458 150.125 150.667 150.125C157.719 150.125 165.19 147.298 170.957 143.294C174.077 141.069 178.324 141.253 181.234 143.739C185.009 146.853 189.754 149.235 194.499 150.334C199.008 151.381 201.813 155.883 200.764 160.384C199.716 164.886 195.207 167.686 190.697 166.639C184.275 165.148 178.927 162.321 175.44 160.096C167.838 164.179 159.318 166.875 150.667 166.875C142.304 166.875 134.78 164.284 129.59 161.928C128.069 161.222 126.68 160.541 125.5 159.913C124.32 160.541 122.957 161.248 121.41 161.928C116.22 164.284 108.696 166.875 100.333 166.875C91.6823 166.875 83.1623 164.179 75.5599 160.123C72.0471 162.321 66.7253 165.174 60.3026 166.666C55.7936 167.712 51.2845 164.912 50.2359 160.41C49.1873 155.909 51.9923 151.407 56.5014 150.36C61.2464 149.261 65.9913 146.88 69.7663 143.765C72.6762 141.305 76.9231 141.122 80.0427 143.32C85.8363 147.298 93.2814 150.125 100.333 150.125C107.543 150.125 114.752 147.351 120.65 143.294C123.56 141.226 127.44 141.226 130.35 143.294Z" fill="white"/>
<rect x="128" y="128" width="102" height="102" rx="30" fill="#623486"/>
<path fill-rule="evenodd" clip-rule="evenodd" d="M167.75 152.417H191.917C194.575 152.417 196.75 154.592 196.75 157.25V200.75C196.75 203.408 194.575 205.583 191.917 205.583H167.75C165.092 205.583 162.917 203.408 162.917 200.75V193.5H167.75V198.333H191.917V159.667H167.75V164.5H162.917V157.25C162.917 154.592 165.092 152.417 167.75 152.417ZM156.778 176.39L162.941 182.552L177.223 168.222L180.293 171.291L162.917 188.667L153.709 179.459L156.778 176.39Z" fill="white"/>
</g>
<defs>
<clipPath id="clip0_102_9">
<rect width="256" height="256" fill="white"/>
</clipPath>
</defs>
</svg>
